<svg width="474" height="839" viewBox="0 0 474 839" fill="none" xmlns="http://www.w3.org/2000/svg" preserveAspectRatio="none">
<path d="M385.713 8C355.278 36.0143 351.175 53.8854 385.713 92.75C415.097 131.71 410.913 149.431 385.713 177.5C299.521 296.912 175.213 281 104.713 306.5C34.2132 332 -11.787 439.5 22.7131 478.5C57.2132 517.5 306.5 576.5 306.5 576.5" stroke="#45A29E" stroke-width="21"/>
<path d="M306.5 576.5C361 589 408.175 599.385 442.713 638.25C472.097 677.21 467.913 694.931 442.713 723C356.521 842.412 232.213 826.5 161.713 852C91.2132 877.5 45.213 985 79.7131 1024C114.213 1063 364.5 1122 364.5 1122" stroke="#45A29E" stroke-width="21"/>
<path d="M304.227 586.219C304.227 586.259 304.243 586.206 304.245 586.192C304.251 586.16 304.257 586.129 304.268 586.098C304.27 586.09 304.27 586.065 304.275 586.06C304.302 586.029 304.301 585.968 304.307 585.928C304.321 585.827 304.341 585.727 304.358 585.626C304.366 585.578 304.381 585.532 304.399 585.487C304.427 585.414 304.418 585.339 304.416 585.261C304.412 585.078 304.436 584.897 304.456 584.715C304.459 584.686 304.458 584.658 304.463 584.629C304.469 584.602 304.484 584.58 304.495 584.554C304.518 584.497 304.538 584.442 304.575 584.392C304.617 584.336 304.622 584.261 304.645 584.195C304.658 584.156 304.669 584.115 304.688 584.078C304.71 584.034 304.725 583.988 304.749 583.944C304.755 583.931 304.759 583.917 304.762 583.903C304.763 583.898 304.769 583.882 304.76 583.893C304.744 583.912 304.742 583.929 304.742 583.953" stroke="#45A29E" stroke-linecap="round"/>
<path d="M304.766 583.321C304.766 583.328 304.772 583.382 304.778 583.378C304.79 583.37 304.796 583.329 304.8 583.317C304.84 583.211 304.891 583.11 304.938 583.008C304.998 582.876 305.018 582.739 305.054 582.6C305.075 582.516 305.108 582.437 305.143 582.357C305.157 582.326 305.177 582.3 305.192 582.27" stroke="#45A29E" stroke-linecap="round"/>
<path d="M305.25 581.739C305.269 581.683 305.293 581.629 305.314 581.575C305.371 581.42 305.404 581.262 305.446 581.104C305.471 581.01 305.498 580.917 305.541 580.83C305.561 580.791 305.586 580.756 305.602 580.715" stroke="#45A29E" stroke-linecap="round"/>
<path d="M305.492 580.426C305.492 580.417 305.493 580.409 305.495 580.4C305.515 580.333 305.548 580.267 305.574 580.202C305.681 579.935 305.776 579.663 305.854 579.387C305.889 579.263 305.918 579.138 305.939 579.011C305.95 578.944 305.959 578.874 305.979 578.808C305.992 578.763 306.01 578.718 306.024 578.672" stroke="#45A29E" stroke-linecap="round"/>
<path d="M305.918 578.457C305.919 578.453 305.92 578.45 305.923 578.446C305.959 578.404 305.982 578.345 306.005 578.296C306.117 578.057 306.201 577.813 306.229 577.551C306.241 577.44 306.242 577.33 306.262 577.219C306.267 577.189 306.276 577.16 306.281 577.129C306.286 577.1 306.289 577.071 306.299 577.043C306.321 576.981 306.331 576.915 306.346 576.851C306.352 576.823 306.354 576.787 306.367 576.761C306.378 576.738 306.379 576.712 306.387 576.688C306.397 576.659 306.406 576.633 306.41 576.602" stroke="#45A29E" stroke-linecap="round"/>
</svg>
